<svg xmlns="http://www.w3.org/2000/svg" width="270" height="409" viewBox="0 0 270 409" fill="none">
  <path fill-rule="evenodd" clip-rule="evenodd" d="M266.68 109.088C264.357 114.989 260.884 120.369 256.461 124.914V124.9C247.47 134.13 235.212 139.457 222.33 139.732C209.448 140.008 196.973 135.21 187.596 126.374C166.794 106.745 139.164 95.989 110.564 96.3876C81.9653 96.7861 54.6456 108.307 34.3985 128.509C24.4356 138.448 16.5312 150.254 11.138 163.253C5.7448 176.251 2.96867 190.185 2.96867 204.257C2.96867 218.33 5.7448 232.264 11.138 245.262C16.5312 258.26 24.4356 270.067 34.3985 280.006C54.6456 300.207 81.9653 311.729 110.564 312.127C139.164 312.526 166.794 301.77 187.596 282.141C196.973 273.306 209.446 268.508 222.327 26s8.781C235.208 269.054 247.467 274.376 256.461 283.601C260.884 288.146 264.357 293.526 266.68 299.427C269.002 305.328 270.127 311.632 269.989 317.972C269.85 324.312 268.451 330.561 265.873 336.355C263.295 342.149 259.59 347.372 254.974 351.719C225.77 379.401 189.132 397.973 149.54 405.164C109.949 412.355 69.1197 407.852 32.0464 392.208C-5.02701 376.564 -36.7378 350.455 -59.2079 317.075C-81.678 283.696 -93.9335 244.492 -94.4756 204.257C-93.9335 164.023 -81.678 124.819 -59.2079 91.4395C-36.7378 58.0597 -5.02701 31.9512 32.0464 16.3068C69.1197 0.662438 109.949 -3.83968 149.54 3.35104C189.132 10.5418 225.77 29.1137 254.974 56.7955C259.59 61.1431 263.295 66.3661 265.873 72.1601C268.451 77.9541 269.85 84.2032 269.989 90.5432C270.127 96.8832 269.002 103.187 266.68 109.088ZM160.762 204.083C160.909 230.685 139.217 252.37 112.312 252.519C85.4064 252.668 63.4758 231.224 63.3286 204.623C63.1814 178.021 84.8734 156.336 111.779 156.187C138.684 156.038 160.615 177.482 160.762 204.083Z" fill="url(#paint0_linear_207_70)"/>
  <defs>
    <linearGradient id="paint0_linear_207_70" x1="-104.143" y1="14.5344" x2="283.784" y2="263.486" gradientUnits="userSpaceOnUse">
      <stop stop-color="#00A5F0"/>
      <stop offset="1" stop-color="#00D7D7" stop-opacity="0"/>
    </linearGradient>
  </defs>
</svg>